<svg width="268" height="251" viewBox="0 0 268 251" fill="none" xmlns="http://www.w3.org/2000/svg">
<g clip-path="url(#clip0_4_48)">
<path d="M178.667 52.2918H117.25V31.3752H145.167C148.128 31.3752 150.969 30.2733 153.063 28.312C155.157 26.3507 156.333 23.6906 156.333 20.9168C156.333 18.1431 155.157 15.483 153.063 13.5217C150.969 11.5604 148.128 10.4585 145.167 10.4585H67C64.0384 10.4585 61.1981 11.5604 59.1039 13.5217C57.0098 15.483 55.8333 18.1431 55.8333 20.9168C55.8333 23.6906 57.0098 26.3507 59.1039 28.312C61.1981 30.2733 64.0384 31.3752 67 31.3752H94.9166V52.2918H50.25C48.0293 52.2188 45.8164 52.5746 43.7489 53.3371C41.6814 54.0996 39.8036 55.2526 38.2324 56.7241C36.6612 58.1956 35.4302 59.9543 34.6161 61.8906C33.8019 63.827 33.422 65.8995 33.5 67.9793V109.813C33.422 111.892 33.8019 113.965 34.6161 115.901C35.4302 117.838 36.6612 119.596 38.2324 121.068C39.8036 122.539 41.6814 123.692 43.7489 124.455C45.8164 125.217 48.0293 125.573 50.25 125.5H156.333V162.104C156.255 164.184 156.635 166.257 157.449 168.193C158.264 170.129 159.495 171.888 161.066 173.36C162.637 174.831 164.515 175.984 166.582 176.747C168.65 177.509 170.863 177.865 173.083 177.792H217.75C219.971 177.865 222.184 177.509 224.251 176.747C226.319 175.984 228.196 174.831 229.768 173.36C231.339 171.888 232.57 170.129 233.384 168.193C234.198 166.257 234.578 164.184 234.5 162.104V104.584C234.5 90.7149 228.618 77.4143 218.147 67.6077C207.676 57.8011 193.475 52.2918 178.667 52.2918ZM212.167 156.875H178.667V120.271C178.745 118.191 178.365 116.119 177.551 114.182C176.736 112.246 175.505 110.487 173.934 109.016C172.363 107.544 170.485 106.391 168.418 105.629C166.35 104.866 164.137 104.51 161.917 104.584H55.8333V73.2085H178.667C187.551 73.2085 196.072 76.5141 202.355 82.398C208.637 88.282 212.167 96.2623 212.167 104.584V156.875Z" fill="black"/>
<path d="M195.417 188.25L178.667 206.029C176.711 208.067 175.214 210.454 174.264 213.046C173.315 215.638 172.933 218.382 173.142 221.115C173.35 223.849 174.145 226.515 175.478 228.954C176.811 231.393 178.655 233.556 180.9 235.313C184.946 238.553 190.094 240.334 195.417 240.334C200.74 240.334 205.888 238.553 209.934 235.313C212.179 233.556 214.023 231.393 215.356 228.954C216.689 226.515 217.484 223.849 217.692 221.115C217.9 218.382 217.519 215.638 216.569 213.046C215.62 210.454 214.123 208.067 212.167 206.029L195.417 188.25Z" fill="black"/>
</g>
<defs>
<clipPath id="clip0_4_48">
<rect width="268" height="251" fill="white"/>
</clipPath>
</defs>
</svg>
