<svg width="228" height="229" viewBox="0 0 228 229" fill="none" xmlns="http://www.w3.org/2000/svg">
<g clip-path="url(#clip0_12_8)">
<path fill-rule="evenodd" clip-rule="evenodd" d="M115.41 1.24862C117.776 0.803782 120.22 1.07346 122.433 2.02355C124.646 2.97365 126.529 4.5615 127.844 6.58639C129.159 8.61128 129.847 10.9823 129.821 13.3997C129.794 15.817 129.055 18.1723 127.696 20.1676C126.337 22.1629 124.419 23.7088 122.186 24.6097C119.952 25.5107 117.503 25.7263 115.147 25.2292C112.791 24.7322 110.635 23.5449 108.952 21.8174C107.268 20.0899 106.132 17.8998 105.687 15.5238C105.392 13.9453 105.409 12.3237 105.738 10.7518C106.066 9.17983 106.7 7.68839 107.603 6.36267C108.506 5.03695 109.66 3.90294 111 3.02544C112.339 2.14795 113.838 1.54417 115.41 1.24862ZM195.195 146.014C193.92 143.732 192.029 141.858 189.74 140.609L192.913 138.857C196.038 137.123 198.353 134.217 199.351 130.773C200.349 127.33 199.948 123.63 198.238 120.482C196.921 118.056 194.885 116.102 192.412 114.891L194.972 113.475C196.532 112.621 197.908 111.467 199.023 110.078C200.138 108.689 200.969 107.092 201.469 105.38C201.969 103.668 202.127 101.874 201.936 100.101C201.745 98.3269 201.207 96.6086 200.353 95.0439C198.62 91.9117 195.725 89.5941 192.298 88.5958C188.872 87.5976 185.191 87.9995 182.058 89.714L179.442 91.3167C179.654 88.8768 179.204 86.4247 178.137 84.2219C177.071 82.0192 175.429 80.1485 173.388 78.8094C171.346 77.4703 168.98 76.7129 166.544 76.6182C164.107 76.5235 161.69 77.0949 159.551 78.2715L146.136 85.7259C144.639 82.4676 142.061 79.8327 138.844 78.2715C136.003 76.8979 132.813 76.4235 129.697 76.911L131.163 73.892C132.959 70.1851 133.215 65.9133 131.876 62.0164C131.212 60.0869 130.177 58.3075 128.829 56.7798C127.481 55.2521 125.847 54.0061 124.019 53.1128C120.328 51.3087 116.075 51.0512 112.195 52.3967C108.316 53.7423 105.127 56.5807 103.331 60.2877L101.846 63.3626C100.299 60.6762 97.9939 58.5103 95.2222 57.1382C91.5304 55.3459 87.2818 55.0966 83.4073 56.445C79.5328 57.7934 76.3486 60.6295 74.5523 64.3317L42.3785 130.452C41.6481 131.531 40.9911 132.658 40.4117 133.826L38.5562 137.721L38.3707 137.236C37.0718 133.807 35.8843 130.303 35.4205 128.999C32.3961 120.128 26.607 115.73 20.7623 114.891C18.1862 114.507 15.5549 114.816 13.1363 115.786C10.6877 116.773 8.52944 118.37 6.86481 120.426C2.78278 125.421 1.14997 133.472 5.10212 143.106V143.274C9.29548 155.648 19.1295 193.48 29.9283 205.388C43.2877 220.111 77.8922 233.939 96.5025 227.341C107.159 223.575 115.903 215.731 120.828 205.519L122.683 201.568C145.073 189.218 167.468 176.838 189.87 164.426C192.992 162.689 195.303 159.781 196.297 156.338C197.291 152.895 196.888 149.197 195.176 146.051L195.195 146.014ZM147.528 91.7267C152.482 89.0059 157.492 86.2663 162.483 83.4896C164.187 82.5624 166.185 82.3417 168.049 82.8746C168.978 83.14 169.845 83.5881 170.6 84.1927C171.355 84.7974 171.983 85.5465 172.447 86.3968C173.37 88.1086 173.59 90.1152 173.059 91.9876C172.792 92.9165 172.344 93.7832 171.743 94.538C171.141 95.2927 170.396 95.9207 169.552 96.3857L154.337 104.791C153.837 104.492 153.354 104.194 152.816 103.933C150.122 102.617 147.104 102.118 144.132 102.498L145.988 98.7712C147.04 96.5754 147.567 94.1633 147.528 91.7267ZM159.032 109.506L185.008 95.1558C186.715 94.2348 188.713 94.0208 190.575 94.5594C191.501 94.8242 192.366 95.2721 193.118 95.877C193.87 96.4818 194.494 97.2313 194.954 98.0816C195.877 99.7934 196.097 101.8 195.566 103.672C195.307 104.607 194.862 105.48 194.26 106.239C193.657 106.998 192.909 107.627 192.059 108.089L159.254 126.222L159.96 124.731C160.85 122.9 161.37 120.909 161.488 118.874C161.606 116.839 161.32 114.801 160.646 112.879C160.245 111.693 159.703 110.561 159.032 109.506ZM154.337 136.36L182.93 120.557C183.772 120.092 184.697 119.798 185.653 119.693C186.608 119.587 187.574 119.672 188.497 119.942C189.427 120.204 190.295 120.651 191.05 121.256C191.805 121.861 192.432 122.612 192.894 123.464C193.809 125.181 194.018 127.19 193.477 129.06C192.936 130.93 191.688 132.514 190 133.472L151.424 154.791L154.375 160.27L179.906 146.163C181.61 145.236 183.608 145.015 185.472 145.548C186.405 145.81 187.275 146.26 188.03 146.868C188.786 147.476 189.412 148.232 189.87 149.089C190.793 150.8 191.013 152.807 190.482 154.679C190.221 155.613 189.776 156.485 189.173 157.244C188.571 158.003 187.824 158.632 186.975 159.096L127.415 191.951L154.337 136.36ZM114.519 202.406C110.397 210.976 103.056 217.552 94.109 220.688C78.2447 226.279 46.3863 213.122 35.0308 200.617C25.4752 190.088 14.8619 150.132 11.7633 141C11.7282 140.835 11.6785 140.673 11.6148 140.516L8.36774 141.876L11.5963 140.516C8.72028 133.546 9.62946 128.067 12.2828 124.862C13.2114 123.719 14.4199 122.84 15.7896 122.309C17.0628 121.782 18.4532 121.609 19.816 121.805C23.2857 122.327 26.8111 125.234 28.8707 131.235C29.3531 132.614 30.5963 136.267 31.8951 139.696C32.8661 142.472 34.1092 145.143 35.606 147.672C35.9517 148.271 36.469 148.752 37.0904 149.051H40.189L46.9986 136.901C58.1685 113.531 69.4869 90.5899 80.8609 67.0898C81.8478 65.0745 83.5889 63.5334 85.7037 62.8035C86.7473 62.4307 87.8547 62.2716 88.9605 62.3356C90.0663 62.3996 91.1481 62.6855 92.1422 63.1763C94.1476 64.1598 95.6824 65.9025 96.4097 68.0216C96.7809 69.0698 96.9394 70.182 96.8756 71.2927C96.8119 72.4034 96.5273 73.49 96.0386 74.4884L73.9771 120.072L80.5084 123.278L109.658 63.1017C110.381 61.5865 111.539 60.3226 112.981 59.4718C114.424 58.6211 116.087 58.2222 117.757 58.3263C119.427 58.4304 121.028 59.0327 122.355 60.0561C123.682 61.0794 124.675 62.4773 125.207 64.0708C125.57 65.1179 125.723 66.2272 125.656 67.3341C125.589 68.4411 125.304 69.5237 124.817 70.5189L95.6675 130.695L102.347 133.956L124.483 88.279C124.969 87.2793 125.647 86.386 126.478 85.6504C127.309 84.9148 128.277 84.3514 129.326 83.9928C130.901 83.4524 132.6 83.3918 134.209 83.8184C135.818 84.245 137.266 85.1399 138.37 86.3905C139.475 87.6412 140.187 89.1918 140.416 90.8475C140.646 92.5032 140.383 94.1901 139.661 95.6962L117.506 141.355L123.834 144.448L138.455 114.239C138.941 113.239 139.619 112.346 140.45 111.61C141.281 110.875 142.249 110.311 143.297 109.953C144.341 109.58 145.448 109.421 146.554 109.485C147.66 109.549 148.742 109.835 149.736 110.326C151.741 111.317 153.275 113.064 154.005 115.186C154.735 117.308 154.601 119.633 153.632 121.656C140.595 148.567 127.557 175.483 114.519 202.406ZM222.99 88.9127C221.99 87.9846 220.738 87.3753 219.393 87.1619C218.048 86.9485 216.67 87.1406 215.433 87.7139C214.197 88.2872 213.158 89.2159 212.447 90.3826C211.736 91.5492 211.386 92.9014 211.44 94.2681C211.495 95.6347 211.952 96.9544 212.753 98.0602C213.555 99.166 214.665 100.008 215.943 100.48C217.221 100.952 218.61 101.033 219.933 100.712C221.257 100.391 222.456 99.6835 223.379 98.678C223.996 98.0132 224.476 97.2322 224.791 96.3801C225.105 95.528 225.249 94.6218 225.212 93.7137C225.176 92.8056 224.961 91.9138 224.58 91.0897C224.198 90.2657 223.658 89.5257 222.99 88.9127ZM217.813 91.3167C218.336 91.2151 218.878 91.2718 219.369 91.4796C219.86 91.6874 220.278 92.037 220.571 92.484C220.864 92.931 221.018 93.4554 221.014 93.9905C221.01 94.5257 220.848 95.0476 220.548 95.49C220.248 95.9325 219.825 96.2756 219.331 96.4758C218.836 96.676 218.294 96.7243 217.773 96.6147C217.251 96.505 216.774 96.2423 216.401 95.8598C216.028 95.4773 215.777 94.9923 215.679 94.4662C215.549 93.7646 215.7 93.0397 216.1 92.4496C216.499 91.8595 217.115 91.4522 217.813 91.3167ZM210.929 51.1933C209.162 49.5454 206.947 48.4611 204.566 48.0775C202.185 47.6939 199.744 48.0283 197.552 49.0383C195.36 50.0483 193.516 51.6886 192.253 53.7517C190.989 55.8148 190.363 58.2079 190.454 60.6283C190.545 63.0488 191.348 65.3877 192.763 67.3493C194.178 69.311 196.14 70.8071 198.401 71.6484C200.663 72.4897 203.122 72.6385 205.467 72.0759C207.813 71.5132 209.94 70.2645 211.579 68.4875C213.774 66.1069 214.939 62.9482 214.818 59.7054C214.696 56.4626 213.297 53.401 210.929 51.1933ZM201.466 53.9141C202.699 53.6821 203.973 53.8223 205.127 54.317C206.28 54.8116 207.262 55.6386 207.948 56.6934C208.634 57.7482 208.993 58.9836 208.98 60.2434C208.968 61.5032 208.584 62.7309 207.876 63.7715C207.169 64.8122 206.171 65.6189 205.008 66.09C203.844 66.561 202.568 66.6752 201.34 66.418C200.112 66.1609 198.987 65.544 198.108 64.6453C197.229 63.7465 196.635 62.6063 196.401 61.3686C196.245 60.5449 196.253 59.6985 196.423 58.8778C196.593 58.0571 196.923 57.2782 197.394 56.5858C197.864 55.8933 198.466 55.3009 199.165 54.8424C199.864 54.384 200.646 54.0685 201.466 53.9141ZM161.054 0C165.099 18.6361 177.215 27.8423 177.215 37.123C177.215 46.4038 173.189 55.7591 161.073 55.7591C148.957 55.7591 144.912 46.4411 144.912 37.123C144.912 27.805 157.009 18.6361 161.054 0ZM86.1119 23.3696C87.4501 23.1313 88.8287 23.2962 90.0738 23.8435C91.3189 24.3909 92.3748 25.2962 93.1085 26.4453C93.8421 27.5945 94.2207 28.936 94.1964 30.3009C94.1721 31.6658 93.7461 32.9929 92.9721 34.115C92.198 35.2371 91.1106 36.1039 89.8469 36.6063C88.5831 37.1086 87.1995 37.2239 85.8706 36.9378C84.5417 36.6516 83.3268 35.9767 82.3792 34.9982C81.4315 34.0196 80.7935 32.7812 80.5455 31.439C80.3797 30.5417 80.3924 29.6204 80.5829 28.728C80.7733 27.8357 81.1378 26.99 81.6553 26.2399C82.1728 25.4897 82.833 24.8499 83.5979 24.3572C84.3628 23.8646 85.2172 23.529 86.1119 23.3696ZM86.8912 27.5255C87.4106 27.4276 87.9473 27.4867 88.4333 27.6952C88.9194 27.9037 89.3329 28.2523 89.6216 28.6969C89.9104 29.1416 90.0613 29.6622 90.0555 30.193C90.0496 30.7238 89.8871 31.2409 89.5885 31.6789C89.29 32.117 88.8688 32.4562 88.3783 32.6538C87.8878 32.8514 87.3499 32.8984 86.8328 32.789C86.3156 32.6795 85.8424 32.4185 85.473 32.0389C85.1036 31.6592 84.8545 31.1781 84.7574 30.6563C84.6322 29.9576 84.7859 29.2374 85.1852 28.6515C85.5845 28.0656 86.1973 27.6611 86.8912 27.5255ZM116.579 7.0258C117.812 6.79376 119.085 6.93394 120.239 7.42861C121.393 7.92328 122.374 8.75026 123.06 9.80508C123.746 10.8599 124.105 12.0952 124.093 13.355C124.08 14.6148 123.696 15.8426 122.989 16.8832C122.282 17.9238 121.283 18.7306 120.12 19.2016C118.956 19.6727 117.68 19.7868 116.452 19.5297C115.224 19.2725 114.1 18.6556 113.221 17.7569C112.342 16.8582 111.747 15.7179 111.513 14.4802C111.357 13.6566 111.365 12.8102 111.535 11.9895C111.706 11.1688 112.036 10.3899 112.506 9.69741C112.977 9.00495 113.579 8.41254 114.277 7.9541C114.976 7.49566 115.758 7.1802 116.579 7.0258Z" fill="black"/>
</g>
<defs>
<clipPath id="clip0_12_8">
<rect width="228" height="229" fill="white"/>
</clipPath>
</defs>
</svg>
