<svg width="238" height="238" viewBox="0 0 238 238" fill="none" xmlns="http://www.w3.org/2000/svg">
<path d="M180.354 35.3638C164.065 12.559 142.276 0 119 0C95.7249 0 73.9357 12.559 57.6465 35.3638C41.6525 57.7563 32.8438 87.4588 32.8438 119C32.8438 150.541 41.6525 180.244 57.6465 202.636C73.9357 225.441 95.7249 238 119 238C142.275 238 164.064 225.441 180.354 202.636C196.348 180.244 205.156 150.541 205.156 119C205.156 87.4588 196.348 57.7563 180.354 35.3638ZM119 229.905C75.9574 229.905 40.939 180.153 40.939 119C40.939 57.847 75.9574 8.09524 119 8.09524C162.043 8.09524 197.062 57.847 197.062 119C197.062 180.153 162.044 229.905 119 229.905Z" fill="black"/>
<path d="M163.784 47.1998C151.423 29.8938 135.518 20.363 119 20.363C102.483 20.363 86.5778 29.8938 74.2169 47.1998C60.6682 66.1675 53.2065 91.667 53.2065 119C53.2065 146.334 60.6682 171.833 74.2169 190.801C86.5778 208.106 102.482 217.638 119 217.638C135.518 217.638 151.423 208.107 163.784 190.801C177.332 171.833 184.794 146.334 184.794 119C184.794 91.6675 177.332 66.168 163.784 47.1998ZM157.196 51.9053C158.563 53.818 159.858 55.8088 161.09 57.8629L73.9719 174.857C66.8745 161.1 62.5965 144.794 61.556 127.382L133.067 31.3472C141.83 34.9852 150.109 41.9827 157.196 51.9053ZM80.8043 51.9053C91.6039 36.785 105.169 28.4583 119 28.4583C120.929 28.4583 122.851 28.6261 124.762 28.9456L61.3898 114.05C62.2219 90.287 69.0408 68.3743 80.8043 51.9053ZM78.3736 182.501L165.32 65.7368C167.125 69.5011 168.726 73.4419 170.115 77.5311L85.145 191.634C83.6554 189.904 82.2059 188.058 80.8043 186.096C79.9683 184.925 79.1593 183.725 78.3736 182.501ZM157.196 186.095C146.397 201.215 132.832 209.542 119 209.542C109.189 209.542 99.5124 205.347 90.8607 197.514L172.956 87.2696C175.415 97.2759 176.698 107.968 176.698 119C176.699 144.661 169.773 168.489 157.196 186.095Z" fill="black"/>
</svg>
