<svg width="279" height="278" viewBox="0 0 279 278" fill="none" xmlns="http://www.w3.org/2000/svg">
<path d="M241.181 213.133H232.5V194.6C232.5 143.499 190.78 101.933 139.5 101.933C129.241 101.933 120.9 93.6208 120.9 83.4V64.8668H129.581C135.05 64.8668 139.5 60.433 139.5 54.9837V37.6831C139.5 32.2344 135.05 27.8 129.581 27.8H120.9V9.88312C120.9 4.43388 116.45 0 110.982 0H56.4186C50.9503 0 46.5 4.43388 46.5 9.88312V27.8H37.8188C32.35 27.8 27.9001 32.2339 27.9001 37.6831V54.9837C27.9001 60.4324 32.35 64.8668 37.8188 64.8668H46.5005V83.4C46.5005 134.497 88.2203 176.067 139.501 176.067C149.759 176.067 158.101 184.379 158.101 194.6V213.133H149.419C143.951 213.133 139.5 217.567 139.5 223.016V240.317C139.5 245.766 143.95 250.2 149.419 250.2H158.101V268.117C158.101 273.566 162.55 278 168.019 278H222.582C228.051 278 232.501 273.566 232.501 268.117V250.2H241.183C246.651 250.2 251.101 245.766 251.101 240.317V223.016C251.1 217.568 246.65 213.133 241.181 213.133ZM51.1503 55.6H37.8188C37.4793 55.6 37.2003 55.322 37.2003 54.9837V37.6831C37.2003 37.3405 37.4793 37.0668 37.8188 37.0668H51.1503H116.251H129.582C129.922 37.0668 130.201 37.34 130.201 37.6831V54.9837C130.201 55.322 129.922 55.6 129.582 55.6H116.251H51.1503ZM241.8 240.317C241.8 240.655 241.521 240.933 241.181 240.933H227.85H162.75H149.419C149.079 240.933 148.8 240.655 148.8 240.317V223.016C148.8 222.674 149.079 222.4 149.419 222.4H162.75H227.851H241.182C241.522 222.4 241.801 222.674 241.801 223.016V240.317H241.8Z" fill="black"/>
</svg>
