<svg width="346" height="78" viewBox="0 0 346 78" fill="none" xmlns="http://www.w3.org/2000/svg">
<path d="M13.1481 69.0663C12.3296 69.0663 11.6474 68.7764 11.1017 68.1966L0.86967 57.9645C0.289854 57.4188 -5.45351e-05 56.7367 -5.45351e-05 55.9181V13.9667C-5.45351e-05 13.1823 0.289854 12.5002 0.86967 11.9203L11.1017 1.68829C11.6474 1.14258 12.3296 0.869727 13.1481 0.869727H33.7657C34.5502 0.869727 35.2323 1.14258 35.8121 1.68829L46.0442 11.9203C46.624 12.5002 46.9139 13.1823 46.9139 13.9667V55.9181C46.9139 56.7367 46.624 57.4188 46.0442 57.9645L35.8121 68.1966C35.2323 68.7764 34.5502 69.0663 33.7657 69.0663H13.1481ZM18.5711 77.6101C17.7184 77.6101 17.2921 77.1837 17.2921 76.3311V69.0663H30.338L32.589 75.6148C32.7595 76.1264 32.6743 76.5869 32.3332 76.9962C32.0263 77.4054 31.617 77.6101 31.1054 77.6101H18.5711ZM19.8501 55.4065H27.0125C28.445 55.4065 29.1613 54.4515 29.1613 52.5416V17.3945C29.1613 15.4504 28.445 14.4783 27.0125 14.4783H19.8501C18.4517 14.4783 17.7525 15.4504 17.7525 17.3945V52.5416C17.7525 54.4515 18.4517 55.4065 19.8501 55.4065ZM72.3021 69.0663C71.4836 69.0663 70.8014 68.7764 70.2557 68.1966L60.0237 57.9645C59.4439 57.4188 59.154 56.7367 59.154 55.9181V14.0691C59.154 13.2164 59.5803 12.7901 60.433 12.7901H74.0927C74.9454 12.7901 75.3718 13.2164 75.3718 14.0691V53.8717C75.3718 55.4747 76.1562 56.2763 77.7251 56.2763H84.7341V14.0691C84.7341 13.2164 85.1604 12.7901 86.0131 12.7901H99.6729C100.526 12.7901 100.952 13.2164 100.952 14.0691V67.7873C100.952 68.64 100.526 69.0663 99.6729 69.0663H72.3021ZM114.191 69.0663C113.339 69.0663 112.912 68.64 112.912 67.7873V14.0691C112.912 13.2164 113.339 12.7901 114.191 12.7901H127.8C128.652 12.7901 129.079 13.2164 129.079 14.0691V67.7873C129.079 68.64 128.652 69.0663 127.8 69.0663H114.191ZM113.935 8.54376C113.253 8.54376 112.912 8.20269 112.912 7.52056V1.02321C112.912 0.341073 113.253 4.69303e-06 113.935 4.69303e-06H128.158C128.772 4.69303e-06 129.079 0.341073 129.079 1.02321V7.52056C129.079 8.20269 128.772 8.54376 128.158 8.54376H113.935ZM145.953 69.0663C145.407 69.0663 144.964 68.9981 144.623 68.8617C144.316 68.7252 144.077 68.5036 143.906 68.1966L137.921 57.9645C137.511 57.2142 137.307 56.6514 137.307 56.2763C137.307 55.7305 137.511 55.1337 137.921 54.4856L154.292 28.7009V25.5801H137.665C136.812 25.5801 136.386 25.1538 136.386 24.3011V14.0691C136.386 13.2164 136.812 12.7901 137.665 12.7901H162.836C163.381 12.7901 163.808 12.8583 164.115 12.9947C164.456 13.1311 164.712 13.3528 164.882 13.6598L170.817 23.8918C170.987 24.1647 171.124 24.4546 171.226 24.7616C171.362 25.0685 171.431 25.3755 171.431 25.6824C171.431 26.2623 171.175 26.9444 170.663 27.7288L154.19 53.2578V56.2763H171.073C171.925 56.2763 172.352 56.7026 172.352 57.5553V67.7873C172.352 68.64 171.925 69.0663 171.073 69.0663H145.953ZM179.804 69.0663C178.952 69.0663 178.525 68.64 178.525 67.7873V58.1692C178.525 57.7258 178.542 57.3677 178.576 57.0948C178.645 56.822 178.849 56.6003 179.19 56.4297L192.594 50.2905V41.184L179.395 32.9984C178.815 32.6573 178.525 32.1457 178.525 31.4635V12.6877C178.525 12.142 178.559 11.7498 178.627 11.5111C178.696 11.2382 178.952 10.9483 179.395 10.6413L192.85 1.53481C193.191 1.33017 193.498 1.17669 193.771 1.07436C194.078 0.937939 194.453 0.869727 194.896 0.869727H208.71C209.562 0.869727 209.989 1.29606 209.989 2.14873V10.846C209.989 11.5963 209.733 12.1079 209.221 12.3808L195.817 17.9061V27.3707L209.221 35.0448C209.733 35.2835 209.989 35.8292 209.989 36.6819V58.9366C209.989 59.2094 209.938 59.4994 209.835 59.8063C209.767 60.1133 209.596 60.335 209.324 60.4714L193.259 68.4524C193.055 68.5547 192.799 68.6911 192.492 68.8617C192.219 68.9981 191.946 69.0663 191.673 69.0663H179.804ZM222.007 69.0663C221.155 69.0663 220.728 68.64 220.728 67.7873V14.0691C220.728 13.2164 221.155 12.7901 222.007 12.7901H235.616C236.469 12.7901 236.895 13.2164 236.895 14.0691V67.7873C236.895 68.64 236.469 69.0663 235.616 69.0663H222.007ZM221.752 8.54376C221.069 8.54376 220.728 8.20269 220.728 7.52056V1.02321C220.728 0.341073 221.069 4.69303e-06 221.752 4.69303e-06H235.974C236.588 4.69303e-06 236.895 0.341073 236.895 1.02321V7.52056C236.895 8.20269 236.588 8.54376 235.974 8.54376H221.752ZM250.086 69.0663C249.233 69.0663 248.807 68.64 248.807 67.7873V14.0691C248.807 13.2164 249.233 12.7901 250.086 12.7901H277.456C278.241 12.7901 278.923 13.08 279.503 13.6598L289.735 23.8918C290.315 24.4375 290.604 25.1197 290.604 25.9382V67.7873C290.604 68.64 290.178 69.0663 289.325 69.0663H275.666C274.813 69.0663 274.387 68.64 274.387 67.7873V27.9846C274.387 26.3816 273.585 25.5801 271.982 25.5801H265.024V67.7873C265.024 68.64 264.598 69.0663 263.745 69.0663H250.086ZM330.959 69.0663C330.515 69.0663 330.157 68.9981 329.884 68.8617C329.646 68.7252 329.492 68.5377 329.424 68.2989L323.54 45.1233H318.783V32.8449H323.54L329.424 13.6598C329.492 13.3869 329.646 13.1993 329.884 13.097C330.157 12.9606 330.515 12.8924 330.959 12.8924H343.902C344.755 12.8924 345.181 13.3187 345.181 14.1714V19.5944C345.181 20.0719 345.147 20.447 345.079 20.7199C345.011 20.9928 344.908 21.2827 344.772 21.5896L337.2 39.0353V40.7747L345.181 60.3691C345.352 60.7443 345.471 61.0853 345.539 61.3923C345.608 61.6651 345.642 61.9721 345.642 62.3132V67.7873C345.642 68.64 345.215 69.0663 344.363 69.0663H330.959ZM303.844 69.0663C302.991 69.0663 302.565 68.64 302.565 67.7873V2.14873C302.565 1.29606 302.991 0.869727 303.844 0.869727H317.504C318.356 0.869727 318.783 1.29606 318.783 2.14873V67.7873C318.783 68.64 318.356 69.0663 317.504 69.0663H303.844Z" fill="#2E2525"/>
</svg>
