<svg width="55" height="55" viewBox="0 0 55 55" fill="none" xmlns="http://www.w3.org/2000/svg">
<path d="M3.41068 44.342C3.41068 47.0557 4.4887 49.6583 6.40758 51.5772C8.32646 53.4961 10.929 54.5741 13.6427 54.5741H40.9282C43.6419 54.5741 46.2444 53.4961 48.1633 51.5772C50.0822 49.6583 51.1602 47.0557 51.1602 44.342V40.9314H3.41068V44.342ZM52.8656 30.6993H42.6335V27.2886H49.4549C49.9072 27.2886 50.3409 27.109 50.6607 26.7891C50.9805 26.4693 51.1602 26.0356 51.1602 25.5833V23.8779C51.1602 23.4257 50.9805 22.9919 50.6607 22.6721C50.3409 22.3523 49.9072 22.1726 49.4549 22.1726H40.9282C40.0236 22.1726 39.1561 22.5319 38.5165 23.1716C37.8768 23.8112 37.5175 24.6787 37.5175 25.5833V30.6993H30.6961V10.2352C30.6961 9.33065 31.0555 8.46313 31.6951 7.8235C32.3347 7.18387 33.2022 6.82453 34.1068 6.82453C35.0114 6.82453 35.8789 7.18387 36.5185 7.8235C37.1582 8.46313 37.5175 9.33065 37.5175 10.2352V11.9406C37.5175 12.3928 37.6972 12.8266 38.017 13.1464C38.3368 13.4662 38.7706 13.6459 39.2228 13.6459H42.6335C43.0858 13.6459 43.5196 13.4662 43.8394 13.1464C44.1592 12.8266 44.3389 12.3928 44.3389 11.9406V10.2352C44.3368 8.71899 43.9984 7.2221 43.3479 5.85247C42.6975 4.48284 41.7513 3.27458 40.5775 2.3148C39.4037 1.35502 38.0316 0.667621 36.5601 0.302166C35.0886 -0.0632896 33.5543 -0.0976997 32.0679 0.201416C27.2098 1.14468 23.8748 5.69048 23.8748 10.6392V30.6993H17.0534V25.5833C17.0534 24.6787 16.6941 23.8112 16.0544 23.1716C15.4148 22.5319 14.5473 22.1726 13.6427 22.1726H5.11602C4.66374 22.1726 4.22998 22.3523 3.91016 22.6721C3.59035 22.9919 3.41068 23.4257 3.41068 23.8779V25.5833C3.41068 26.0356 3.59035 26.4693 3.91016 26.7891C4.22998 27.109 4.66374 27.2886 5.11602 27.2886H11.9374V30.6993H1.70534C1.25306 30.6993 0.819296 30.879 0.499483 31.1988C0.179669 31.5186 0 31.9524 0 32.4046L0 35.8153C0 36.2676 0.179669 36.7014 0.499483 37.0212C0.819296 37.341 1.25306 37.5207 1.70534 37.5207H52.8656C53.3178 37.5207 53.7516 37.341 54.0714 37.0212C54.3912 36.7014 54.5709 36.2676 54.5709 35.8153V32.4046C54.5709 31.9524 54.3912 31.5186 54.0714 31.1988C53.7516 30.879 53.3178 30.6993 52.8656 30.6993Z" fill="black"/>
</svg>
