<svg width="252" height="68" viewBox="0 0 252 68" fill="none" xmlns="http://www.w3.org/2000/svg">
<path d="M71.6788 54C71.2423 54 70.8785 53.8454 70.5874 53.5361L65.1303 48.0791C64.8211 47.788 64.6665 47.4242 64.6665 46.9876V24.6136C64.6665 24.1952 64.8211 23.8314 65.1303 23.5221L70.5874 18.0651C70.8785 17.774 71.2423 17.6285 71.6788 17.6285H82.6749C83.0932 17.6285 83.457 17.774 83.7663 18.0651L89.2234 23.5221C89.5326 23.8314 89.6872 24.1952 89.6872 24.6136V46.9876C89.6872 47.4242 89.5326 47.788 89.2234 48.0791L83.7663 53.5361C83.457 53.8454 83.0932 54 82.6749 54H71.6788ZM74.5711 58.5567C74.1163 58.5567 73.889 58.3293 73.889 57.8745V54H80.8467L82.0473 57.4925C82.1383 57.7654 82.0928 58.011 81.9109 58.2292C81.7472 58.4475 81.5289 58.5567 81.256 58.5567H74.5711ZM75.2532 46.7148H79.0732C79.8372 46.7148 80.2192 46.2055 80.2192 45.1868V26.4417C80.2192 25.4048 79.8372 24.8864 79.0732 24.8864H75.2532C74.5074 24.8864 74.1345 25.4048 74.1345 26.4417V45.1868C74.1345 46.2055 74.5074 46.7148 75.2532 46.7148ZM103.228 54C102.791 54 102.427 53.8454 102.136 53.5361L96.6791 48.0791C96.3699 47.788 96.2153 47.4242 96.2153 46.9876V24.6681C96.2153 24.2134 96.4427 23.986 96.8974 23.986H104.183C104.637 23.986 104.865 24.2134 104.865 24.6681V45.8962C104.865 46.7512 105.283 47.1786 106.12 47.1786H109.858V24.6681C109.858 24.2134 110.085 23.986 110.54 23.986H117.825C118.28 23.986 118.507 24.2134 118.507 24.6681V53.3179C118.507 53.7726 118.28 54 117.825 54H103.228ZM125.568 54C125.114 54 124.886 53.7726 124.886 53.3179V24.6681C124.886 24.2134 125.114 23.986 125.568 23.986H132.826C133.281 23.986 133.509 24.2134 133.509 24.6681V53.3179C133.509 53.7726 133.281 54 132.826 54H125.568ZM125.432 21.7213C125.068 21.7213 124.886 21.5394 124.886 21.1756V17.7103C124.886 17.3465 125.068 17.1646 125.432 17.1646H133.017C133.345 17.1646 133.509 17.3465 133.509 17.7103V21.1756C133.509 21.5394 133.345 21.7213 133.017 21.7213H125.432ZM142.508 54C142.217 54 141.981 53.9636 141.799 53.8909C141.635 53.8181 141.508 53.6999 141.417 53.5361L138.224 48.0791C138.006 47.6789 137.897 47.3787 137.897 47.1786C137.897 46.8876 138.006 46.5693 138.224 46.2236L146.956 32.4718V30.8074H138.088C137.633 30.8074 137.406 30.58 137.406 30.1252V24.6681C137.406 24.2134 137.633 23.986 138.088 23.986H151.512C151.803 23.986 152.031 24.0224 152.194 24.0951C152.376 24.1679 152.513 24.2861 152.604 24.4499L155.769 29.9069C155.86 30.0525 155.932 30.2071 155.987 30.3708C156.06 30.5345 156.096 30.6982 156.096 30.8619C156.096 31.1712 155.96 31.535 155.687 31.9534L146.901 45.5688V47.1786H155.905C156.36 47.1786 156.587 47.406 156.587 47.8608V53.3179C156.587 53.7726 156.36 54 155.905 54H142.508ZM160.562 54C160.107 54 159.88 53.7726 159.88 53.3179V48.1882C159.88 47.9517 159.889 47.7607 159.907 47.6152C159.944 47.4697 160.053 47.3514 160.235 47.2605L167.383 43.9862V39.1294L160.344 34.7638C160.035 34.5819 159.88 34.309 159.88 33.9452V23.9314C159.88 23.6404 159.898 23.4312 159.934 23.3039C159.971 23.1583 160.107 23.0037 160.344 22.84L167.52 17.9832C167.702 17.8741 167.865 17.7922 168.011 17.7376C168.175 17.6649 168.375 17.6285 168.611 17.6285H175.978C176.433 17.6285 176.66 17.8559 176.66 18.3106V22.9492C176.66 23.3493 176.524 23.6222 176.251 23.7677L169.102 26.7145V31.7624L176.251 35.8552C176.524 35.9825 176.66 36.2735 176.66 36.7283V48.5975C176.66 48.743 176.633 48.8976 176.579 49.0613C176.542 49.225 176.451 49.3433 176.306 49.416L167.738 53.6726C167.629 53.7271 167.493 53.7999 167.329 53.8909C167.183 53.9636 167.038 54 166.892 54H160.562ZM183.07 54C182.616 54 182.388 53.7726 182.388 53.3179V24.6681C182.388 24.2134 182.616 23.986 183.07 23.986H190.328C190.783 23.986 191.01 24.2134 191.01 24.6681V53.3179C191.01 53.7726 190.783 54 190.328 54H183.07ZM182.934 21.7213C182.57 21.7213 182.388 21.5394 182.388 21.1756V17.7103C182.388 17.3465 182.57 17.1646 182.934 17.1646H190.519C190.847 17.1646 191.01 17.3465 191.01 17.7103V21.1756C191.01 21.5394 190.847 21.7213 190.519 21.7213H182.934ZM198.045 54C197.591 54 197.363 53.7726 197.363 53.3179V24.6681C197.363 24.2134 197.591 23.986 198.045 23.986H212.643C213.062 23.986 213.425 24.1406 213.735 24.4499L219.192 29.9069C219.501 30.198 219.656 30.5618 219.656 30.9984V53.3179C219.656 53.7726 219.428 54 218.973 54H211.688C211.233 54 211.006 53.7726 211.006 53.3179V32.0898C211.006 31.2348 210.579 30.8074 209.724 30.8074H206.013V53.3179C206.013 53.7726 205.785 54 205.331 54H198.045ZM241.178 54C240.941 54 240.75 53.9636 240.605 53.8909C240.477 53.8181 240.396 53.7181 240.359 53.5907L237.221 41.2304H234.684V34.6819H237.221L240.359 24.4499C240.396 24.3043 240.477 24.2043 240.605 24.1497C240.75 24.077 240.941 24.0406 241.178 24.0406H248.081C248.536 24.0406 248.763 24.2679 248.763 24.7227V27.615C248.763 27.8696 248.745 28.0697 248.709 28.2152C248.672 28.3608 248.618 28.5154 248.545 28.6791L244.507 37.9834V38.9111L248.763 49.3615C248.854 49.5616 248.918 49.7435 248.954 49.9072C248.991 50.0527 249.009 50.2164 249.009 50.3983V53.3179C249.009 53.7726 248.781 54 248.327 54H241.178ZM226.716 54C226.262 54 226.034 53.7726 226.034 53.3179V18.3106C226.034 17.8559 226.262 17.6285 226.716 17.6285H234.002C234.456 17.6285 234.684 17.8559 234.684 18.3106V53.3179C234.684 53.7726 234.456 54 234.002 54H226.716Z" fill="#EFEFEF"/>
<path d="M3.41068 51.1634C3.41068 53.8771 4.4887 56.4797 6.40758 58.3985C8.32646 60.3174 10.929 61.3954 13.6427 61.3954H40.9282C43.6419 61.3954 46.2444 60.3174 48.1633 58.3985C50.0822 56.4797 51.1602 53.8771 51.1602 51.1634V47.7527H3.41068V51.1634ZM52.8656 37.5207H42.6335V34.11H49.4549C49.9072 34.11 50.3409 33.9303 50.6607 33.6105C50.9805 33.2907 51.1602 32.8569 51.1602 32.4046V30.6993C51.1602 30.247 50.9805 29.8133 50.6607 29.4935C50.3409 29.1736 49.9072 28.994 49.4549 28.994H40.9282C40.0236 28.994 39.1561 29.3533 38.5165 29.9929C37.8768 30.6326 37.5175 31.5001 37.5175 32.4046V37.5207H30.6961V17.0566C30.6961 16.152 31.0555 15.2845 31.6951 14.6449C32.3347 14.0052 33.2022 13.6459 34.1068 13.6459C35.0114 13.6459 35.8789 14.0052 36.5185 14.6449C37.1582 15.2845 37.5175 16.152 37.5175 17.0566V18.7619C37.5175 19.2142 37.6972 19.648 38.017 19.9678C38.3368 20.2876 38.7705 20.4673 39.2228 20.4673H42.6335C43.0858 20.4673 43.5196 20.2876 43.8394 19.9678C44.1592 19.648 44.3389 19.2142 44.3389 18.7619V17.0566C44.3368 15.5404 43.9984 14.0435 43.3479 12.6738C42.6975 11.3042 41.7513 10.096 40.5775 9.13617C39.4037 8.17639 38.0316 7.48899 36.5601 7.12353C35.0886 6.75808 33.5543 6.72367 32.0679 7.02279C27.2098 7.96605 23.8748 12.5119 23.8748 17.4605V37.5207H17.0534V32.4046C17.0534 31.5001 16.6941 30.6326 16.0544 29.9929C15.4148 29.3533 14.5473 28.994 13.6427 28.994H5.11602C4.66374 28.994 4.22998 29.1736 3.91016 29.4935C3.59035 29.8133 3.41068 30.247 3.41068 30.6993V32.4046C3.41068 32.8569 3.59035 33.2907 3.91016 33.6105C4.22998 33.9303 4.66374 34.11 5.11602 34.11H11.9374V37.5207H1.70534C1.25306 37.5207 0.819296 37.7003 0.499483 38.0202C0.179669 38.34 0 38.7737 0 39.226L0 42.6367C0 43.089 0.179669 43.5227 0.499483 43.8426C0.819296 44.1624 1.25306 44.342 1.70534 44.342H52.8656C53.3178 44.342 53.7516 44.1624 54.0714 43.8426C54.3912 43.5227 54.5709 43.089 54.5709 42.6367V39.226C54.5709 38.7737 54.3912 38.34 54.0714 38.0202C53.7516 37.7003 53.3178 37.5207 52.8656 37.5207Z" fill="#EFEFEF"/>
</svg>
